<svg width="52" height="42" viewBox="0 0 52 42" fill="none" xmlns="http://www.w3.org/2000/svg">
    <path fill-rule="evenodd" clip-rule="evenodd"
        d="M0.464764 14.4358C0.953764 12.7298 2.46376 10.7718 3.82076 10.0858C5.17676 9.39984 7.96776 8.96284 8.48376 9.12584C8.99876 9.28884 9.85342 9.80784 8.48376 10.3978C8.65976 10.9278 7.45076 11.8738 5.79576 12.4978C3.49876 13.3658 2.78676 14.2578 2.78676 16.2708C2.78676 17.7208 3.46976 20.2278 4.30476 21.8428C5.22176 23.6158 6.90576 25.0158 8.55476 25.3768C10.0578 25.7058 11.9618 26.1928 12.7868 26.4588C14.0398 26.8628 15.7638 26.9278 14.2768 27.7628C13.0598 28.4468 9.59176 28.5688 7.14976 27.7628C4.32976 26.8318 3.15176 25.6278 1.57476 22.0608C0.0457642 18.6058 -0.215236 16.8078 0.464764 14.4358Z"
        fill="#2D0E02" />
    <path fill-rule="evenodd" clip-rule="evenodd"
        d="M9.78676 7.56484C9.78676 11.3488 10.4658 16.7318 11.2958 19.5268C12.1258 22.3228 14.2638 26.7918 16.0458 29.4588C18.0698 32.4858 20.8758 35.1109 23.5178 36.4439L27.7488 38.5799L23.0178 38.4439C20.4158 38.3689 18.1588 38.7579 18.0018 39.3079C17.8458 39.8579 19.4208 40.6839 21.5018 41.1429C23.5838 41.6019 29.2198 41.7439 34.0258 41.4589C38.8328 41.1729 43.2678 40.6279 43.8828 40.2489C44.6698 39.7619 44.5998 39.3039 43.6438 38.6979C42.8978 38.2249 41.1138 37.8319 39.6798 37.8229C37.1618 37.8089 37.2348 37.6449 41.7858 33.0579C44.8118 30.0069 47.2178 26.3398 48.5088 22.8078C49.6138 19.7828 50.8248 15.6208 51.1978 13.5578L51.8778 9.80784L40.7555 9.99216C28.6605 9.99216 29 9.79288 29 10.5C29 12 28.7368 11.8078 38.7868 11.8078C47.6558 11.8078 47.7868 11.8428 47.7868 14.2428C47.7868 15.5818 47.3478 17.8318 46.8118 19.2428C45.9878 21.4098 43.5798 22.1318 40.1798 22.1318C37.3438 22.1318 37 21.7928 37 22.8078C37 26 37.2268 24.9878 39.6798 25.1908L45.2868 25.3078L40.1798 30.5578C37.3708 33.4448 34.5788 35.8079 33.9758 35.8079C33.3188 35.8079 32.7598 33.1318 32.5828 29.1378C32.3948 24.9148 32.7868 22.9392 30.7868 23.5C29.2868 22.9392 29.7868 23.5038 29.7868 28.7248C29.7868 33.0038 29.3708 35.8079 28.7368 35.8079C28.1598 35.8079 26.3508 35.1169 24.7178 34.2719C23.0838 33.4269 20.4018 30.8788 18.7568 28.6078C17.1128 26.3378 15.0968 22.2228 14.2768 19.4628C13.4578 16.7028 12.7868 12.0518 12.7868 9.12584V3.80784H30.7868C44.5208 3.80784 47.6124 4.49759 47.6124 2.37184C47.6124 0.246083 45.5518 0.919838 30.7868 0.683838H9.78676V7.56484ZM33.5998 38.4909C34.3208 38.7799 35.1838 38.7439 35.5158 38.4119C35.8478 38.0799 35.2578 37.8439 34.2038 37.8869C33.0388 37.9349 32.8018 38.1719 33.5998 38.4909ZM29.5998 39.4909C30.3208 39.7799 31.1838 39.7439 31.5158 39.4119C31.8478 39.0799 31.2578 38.8439 30.2038 38.8869C29.0388 38.9349 28.8018 39.1719 29.5998 39.4909Z"
        fill="#2D0E02" />
</svg>