<svg width="251" height="41" viewBox="0 0 251 41" fill="none" xmlns="http://www.w3.org/2000/svg">
    <path fill-rule="evenodd" clip-rule="evenodd"
        d="M9.51884 6.66893C9.51884 19.5759 15.1738 31.4709 23.2498 35.5479C27.4808 37.6839 27.4808 37.6839 22.7498 37.5479C16.9888 37.3819 16.0258 39.0979 21.2338 40.2469C25.3108 41.1459 41.7778 40.4879 43.6148 39.3529C45.1898 38.3789 42.7068 36.9469 39.4118 36.9269C36.8938 36.9129 36.9668 36.7489 41.5178 32.1619C46.2328 27.4089 49.4748 20.6929 50.9298 12.6619C51.6098 8.91193 51.6098 8.91193 40.5638 8.91193C33.8668 8.91193 29.5188 9.30593 29.5188 9.91193C29.5188 10.5049 33.1858 10.9119 38.5188 10.9119C47.3878 10.9119 47.5188 10.9469 47.5188 13.3469C47.5188 18.8109 45.8598 20.9119 41.5438 20.9119C36.1228 20.9119 35.8868 23.6559 41.2688 24.1019C45.0188 24.4119 45.0188 24.4119 39.9118 29.6619C33.2978 36.4609 32.6738 36.3449 32.3148 28.2419C31.8888 18.6329 29.5188 18.2819 29.5188 27.8289C29.5188 35.4589 29.1848 35.8249 24.4498 33.3759C17.8858 29.9819 12.5188 18.6699 12.5188 8.22993C12.5188 2.91193 12.5188 2.91193 30.5188 2.91193C44.2528 2.91193 48.5188 2.61593 48.5168 1.66193C48.5158 0.714931 43.7818 0.335931 29.0168 0.0999306C9.51884 -0.212069 9.51884 -0.212069 9.51884 6.66893ZM3.55284 9.18993C-2.59616 12.2999 -0.299159 24.4969 6.88184 26.8669C9.32384 27.6729 11.0208 27.7299 12.2378 27.0459C14.1898 25.9499 13.7788 25.6829 8.28684 24.4809C2.49584 23.2129 0.420841 13.5299 5.52784 11.6019C7.18284 10.9779 8.39184 10.0319 8.21584 9.50193C7.69984 7.95393 6.19584 7.85293 3.55284 9.18993ZM67.6618 10.4449C56.3898 19.9299 69.2878 38.7659 81.2958 30.3549C84.0318 28.4389 84.6218 19.9119 82.0188 19.9119C80.9428 19.9119 80.5188 21.0109 80.5188 23.8049C80.5188 28.0359 79.4678 28.9119 74.3918 28.9119C67.2388 28.9119 63.6688 18.6709 68.9738 13.3669C71.8238 10.5159 76.9008 10.0909 80.2308 12.4229C83.3328 14.5959 84.5488 12.1639 81.5668 9.74993C78.1268 6.96393 71.3988 7.29993 67.6618 10.4449ZM131.519 12.4469C131.519 16.7009 131.392 16.9149 129.481 15.8919C127.017 14.5729 123.801 15.4259 120.769 18.2009C116.003 22.5639 119.268 31.8759 125.579 31.9199C136.449 31.9959 135.519 33.1219 135.519 19.8819C135.519 8.57893 135.408 7.91193 133.519 7.91193C131.813 7.91193 131.519 8.57893 131.519 12.4469ZM151.834 8.92793C148.556 10.2349 147.269 13.2689 148.679 16.3649C149.685 18.5709 149.545 19.2559 147.684 21.2359C141.525 27.7929 151.053 35.4429 159.649 30.8429C161.119 30.0559 162.046 30.1049 163.159 31.0279C165.081 32.6229 167.003 30.1999 165.373 28.2359C164.804 27.5499 164.641 25.6319 165.01 23.9529C165.587 21.3259 165.395 20.9119 163.598 20.9119C162.32 20.9119 161.519 21.5569 161.519 22.5859C161.519 23.9739 161.093 23.8609 159.03 21.9229C156.577 19.6179 156.57 19.5649 158.53 18.1919C164.03 14.3389 158.265 6.36493 151.834 8.92793ZM174.951 9.22993C171.931 17.0989 175.316 31.4289 180.262 31.7139C188.489 32.1879 194.443 23.4129 188.975 18.8749C187.929 18.0079 187.627 16.6959 188.04 14.8179C189.203 9.51993 176.861 4.25093 174.951 9.22993ZM192.951 9.22993C191.534 12.9199 193.027 31.3899 194.769 31.7239C196.358 32.0279 196.519 30.9449 196.519 19.9849C196.519 8.37593 195.016 3.84593 192.951 9.22993ZM246.519 12.3139C246.519 16.7339 246.449 16.8359 244.056 15.9259C236.148 12.9189 229.569 23.8519 235.777 29.6849C243.478 36.9189 250.594 32.1899 250.3 20.0319C250 7.66593 246.519 0.557932 246.519 12.3139ZM184.019 13.4119C184.019 14.8499 183.247 15.5009 181.269 15.7279C178.885 16.0029 178.519 15.6939 178.519 13.4119C178.519 11.1299 178.885 10.8209 181.269 11.0959C183.247 11.3229 184.019 11.9739 184.019 13.4119ZM95.9988 12.9439C95.6108 13.5719 95.7638 14.5569 96.3388 15.1319C97.6828 16.4759 100.816 15.3039 100.269 13.6609C99.7128 11.9899 96.8828 11.5139 95.9988 12.9439ZM157.113 13.0639C158.334 15.0389 154.402 17.2239 152.696 15.5179C151.919 14.7399 151.587 13.6109 151.96 13.0079C152.851 11.5649 156.209 11.6019 157.113 13.0639ZM203.94 16.3279C200.466 17.8439 197.983 22.6469 199.006 25.8719C200.836 31.6359 209.264 34.0609 213.025 29.9059C215.217 27.4829 214.192 26.0109 211.487 27.6999C207.702 30.0639 202.519 28.6259 202.519 25.2119C202.519 24.2789 204.352 23.9119 209.019 23.9119C214.627 23.9119 215.519 23.6629 215.519 22.1009C215.519 20.2059 212.08 15.9119 210.562 15.9119C210.078 15.9119 209.083 15.7029 208.351 15.4479C207.618 15.1939 205.634 15.5889 203.94 16.3279ZM91.1308 16.7309C90.7928 17.2769 89.6168 17.4889 88.5178 17.2009C86.6488 16.7129 86.5188 17.1719 86.5188 24.2949C86.5188 30.3989 86.8168 31.9119 88.0188 31.9119C89.1508 31.9119 89.5188 30.6939 89.5188 26.9509C89.5188 23.1309 90.0238 21.5199 91.7128 19.9449C93.2868 18.4799 93.6018 17.5949 92.8258 16.8189C92.1238 16.1169 91.5288 16.0859 91.1308 16.7309ZM104.269 16.6009C101.476 17.3309 101.668 31.9119 104.471 31.9119C106.167 31.9119 106.463 31.0929 106.721 25.6719C107.216 15.3119 112.473 16.2119 112.504 26.6619C112.515 30.6549 112.878 31.9119 114.019 31.9119C116.402 31.9119 116.124 19.7689 113.69 17.5669C111.953 15.9949 108.1 15.5999 104.269 16.6009ZM219.269 16.6009C216.436 17.3419 216.674 31.9119 219.519 31.9119C221.298 31.9119 221.519 31.2449 221.519 25.8809C221.519 21.2059 221.889 19.7069 223.164 19.2179C225.653 18.2629 227.519 21.6409 227.519 27.1029C227.519 30.7109 227.894 31.9119 229.019 31.9119C231.143 31.9119 231.099 21.1849 228.962 18.1349C227.44 15.9609 223.876 15.3969 219.269 16.6009ZM96.5188 24.4119C96.5188 30.4119 96.8188 31.9119 98.0188 31.9119C99.2188 31.9119 99.5188 30.4119 99.5188 24.4119C99.5188 18.4119 99.2188 16.9119 98.0188 16.9119C96.8188 16.9119 96.5188 18.4119 96.5188 24.4119ZM129.296 19.4689C131.745 21.1839 132.308 25.7229 130.319 27.7119C127.008 31.0229 121.519 28.1059 121.519 23.0339C121.519 21.3099 124.835 17.9119 126.519 17.9119C126.824 17.9119 128.074 18.6129 129.296 19.4689ZM210.601 18.9119C211.106 18.9119 211.519 19.3619 211.519 19.9119C211.519 20.4619 209.719 20.9119 207.519 20.9119C205.319 20.9119 203.519 20.4949 203.519 19.9849C203.519 18.8819 206.472 17.9929 208.351 18.5309C209.083 18.7399 210.096 18.9119 210.601 18.9119ZM244.296 19.4689C248.586 22.4729 246.692 28.9119 241.519 28.9119C238.173 28.9119 236.519 27.2099 236.519 23.7689C236.519 21.3929 239.491 17.9119 241.519 17.9119C241.824 17.9119 243.074 18.6129 244.296 19.4689ZM186.933 22.1319C188.157 25.6319 185.463 28.9119 181.364 28.9119C178.612 28.9119 178.519 28.7459 178.519 23.8519C178.519 17.7239 184.934 16.4129 186.933 22.1319ZM155.899 24.7869C158.653 27.6619 158.653 27.6619 156.066 28.3109C151.367 29.4899 147.805 26.0259 150.719 23.1119C152.406 21.4249 152.8 21.5519 155.899 24.7869ZM35.2478 37.5159C34.9158 37.8479 34.0528 37.8839 33.3318 37.5949C32.5338 37.2759 32.7708 37.0389 33.9358 36.9909C34.9898 36.9479 35.5798 37.1839 35.2478 37.5159ZM31.2478 38.5159C30.9158 38.8479 30.0528 38.8839 29.3318 38.5949C28.5338 38.2759 28.7708 38.0389 29.9358 37.9909C30.9898 37.9479 31.5798 38.1839 31.2478 38.5159Z"
        fill="#B78D6C" />
</svg>