<svg width="27" height="30" viewBox="0 0 27 30" fill="none" xmlns="http://www.w3.org/2000/svg">
    <path
        d="M22.2866 6.01324C20.6679 4.95974 19.5006 3.27338 19.1359 1.3086C19.0575 0.88419 19.0138 0.446986 19.0138 0H13.8487L13.8404 20.6697C13.7537 22.9844 11.8457 24.8423 9.50727 24.8423C8.78006 24.8423 8.0958 24.661 7.49293 24.3442C6.11085 23.618 5.16509 22.1717 5.16509 20.5072C5.16509 18.1165 7.11312 16.1713 9.50651 16.1713C9.95339 16.1713 10.3822 16.245 10.7876 16.3714V11.1062C10.3679 11.049 9.94134 11.0136 9.50651 11.0136C4.26456 11.0136 0 15.272 0 20.5072C0 23.7189 1.60665 26.5611 4.05883 28.2798C5.60293 29.3626 7.48162 30 9.50727 30C14.7492 30 19.0138 25.7416 19.0138 20.5072V10.0256C21.0394 11.4772 23.5217 12.3328 26.2 12.3328V7.17511C24.7576 7.17511 23.414 6.74693 22.2866 6.01324Z"
        fill="#D2B493" />
</svg>